<svg xmlns="http://www.w3.org/2000/svg" viewBox="0 0 563.02 124.06"><defs><style>.cls-1{fill:white;}</style></defs><g id="Layer_2" data-name="Layer 2"><g id="Layer_2-2" data-name="Layer 2"><path class="cls-1" d="M185.65,0,145.88,121h11.5l8.43-25.56H205.1L213.75,121h12.63Zm-17.1,84.67,17-54.07,16.8,54.07Z"/><path class="cls-1" d="M522.3,0,482.53,121H494l8.44-25.56h39.29L550.39,121H563ZM505.2,84.67l17-54.07L539,84.67Z"/><path class="cls-1" d="M251.13,110.61H292V121H234.25L277.73,16.68H244.36V6.3H292.3V7.84Z"/><path class="cls-1" d="M307.12,121V6.3h35.66V16.68H318.05V56.73h20.21V67.31H318.05v43.3h30.43V121Z"/><path class="cls-1" d="M363.66,121V6.3h12.11V110.61H402V121Z"/><path class="cls-1" d="M417.26,121V6.3h11.4V110.61h41.87V121Z"/><path class="cls-1" d="M98.15,77.61h25.56v28.07c-14.47,5.62-30.46,7.66-46.11,7.66-34.38,0-64.5-15.49-64.5-49.52C13.1,29.28,42.37,14,77.76,14a139.19,139.19,0,0,1,55.82,11.4L136.64,15C119.11,6.64,99,3.24,76.74,3.24,39.65,3.24,0,20.09,0,63.65c0,42.88,37.61,60.41,76.74,60.41,22.13,0,41.86-3.58,59.22-11.4v-35h0V67H98.15Z"/></g></g></svg>