<svg id="svg" xmlns="http://www.w3.org/2000/svg" xmlns:xlink="http://www.w3.org/1999/xlink" width="400" height="77.27975270479135" viewBox="0, 0, 400,77.27975270479135"><g id="svgg"><path id="path0" d="M393.039 3.499 C 381.771 11.123,366.791 20.982,361.206 24.453 C 359.633 25.430,357.025 27.096,355.410 28.156 C 351.722 30.575,350.291 31.455,346.608 33.570 C 342.893 35.704,342.852 35.742,343.097 36.802 C 343.290 37.639,343.646 41.321,343.559 41.576 C 343.531 41.656,343.044 40.941,342.476 39.988 C 340.804 37.180,339.750 34.863,339.931 34.392 C 340.159 33.798,347.261 29.428,354.298 25.551 C 360.036 22.390,360.951 21.850,368.006 17.464 C 371.109 15.535,377.034 11.926,381.173 9.445 C 389.716 4.324,389.519 4.456,389.156 4.086 C 388.799 3.723,385.108 5.378,372.411 11.593 C 367.059 14.212,364.287 15.512,357.429 18.618 C 346.900 23.386,335.056 29.016,328.482 32.379 C 326.570 33.357,324.842 34.158,324.643 34.158 C 323.666 34.158,323.127 34.816,323.561 35.479 C 323.860 35.935,323.584 35.930,327.322 35.536 C 328.999 35.359,331.519 35.202,332.921 35.185 C 335.771 35.153,335.858 35.129,335.858 34.377 C 335.858 33.592,335.446 33.453,333.992 33.749 C 333.361 33.878,331.592 34.027,330.062 34.079 L 327.280 34.174 328.362 33.720 C 331.968 32.204,347.261 24.940,356.306 20.445 C 365.608 15.824,377.587 10.160,377.035 10.645 C 376.884 10.778,369.713 14.812,364.799 17.529 C 360.475 19.920,358.466 21.106,354.494 23.616 C 348.163 27.615,344.327 29.842,340.318 31.849 C 337.101 33.459,337.108 33.446,338.421 35.321 C 339.570 36.961,340.101 38.038,341.557 41.680 C 343.647 46.909,343.776 47.104,344.873 46.687 C 345.580 46.418,345.674 45.963,345.392 44.169 C 345.031 41.868,344.925 40.077,345.050 38.405 L 345.161 36.935 347.117 35.510 C 349.119 34.050,354.190 30.664,358.536 27.884 C 359.877 27.026,362.956 25.037,365.379 23.462 C 371.187 19.688,391.286 7.158,394.947 5.029 L 395.690 4.597 394.816 6.047 C 393.386 8.420,390.319 12.916,386.744 17.880 C 384.897 20.446,382.307 24.272,380.989 26.381 C 375.817 34.662,371.050 41.266,370.247 41.266 C 369.643 41.266,367.261 40.887,365.267 40.474 L 363.688 40.147 364.163 39.587 C 368.184 34.847,369.819 32.381,373.145 26.043 C 374.081 24.258,375.151 22.326,375.523 21.749 C 376.282 20.570,376.417 19.720,375.915 19.267 C 375.354 18.759,374.924 18.943,373.410 20.339 C 371.903 21.727,369.907 23.106,365.379 25.887 C 360.329 28.988,348.958 36.838,348.872 37.283 C 348.788 37.711,353.050 39.239,358.029 40.566 L 360.494 41.224 358.725 42.955 C 350.736 50.774,344.198 53.717,329.675 56.033 C 312.363 58.794,308.358 61.306,302.059 73.353 C 300.648 76.053,300.820 77.280,302.609 77.280 C 303.682 77.280,304.086 76.750,304.323 75.032 C 305.007 70.077,306.219 67.482,309.177 64.642 C 312.763 61.200,316.075 59.967,325.657 58.510 C 335.104 57.074,339.279 56.112,343.567 54.382 C 349.853 51.846,355.630 48.013,360.910 42.876 L 362.237 41.585 364.233 42.190 C 366.210 42.789,368.780 43.713,370.221 44.342 C 371.850 45.052,372.249 44.792,373.719 42.056 C 374.889 39.880,375.117 39.480,376.945 36.399 C 378.841 33.204,379.600 32.030,382.283 28.156 C 384.711 24.649,386.458 21.872,390.256 15.483 C 394.088 9.036,396.289 5.822,398.902 2.859 C 400.095 1.506,400.224 1.100,399.680 0.407 C 398.989 -0.471,398.732 -0.352,393.039 3.499 M147.141 12.601 C 147.141 12.732,147.042 12.876,146.921 12.922 C 146.801 12.969,146.523 13.386,146.303 13.849 L 145.904 14.692 145.904 33.282 C 145.904 49.389,145.934 51.913,146.131 52.173 C 146.256 52.338,146.360 52.587,146.363 52.726 C 146.378 53.489,147.455 54.096,148.798 54.096 C 149.501 54.096,150.077 54.038,150.077 53.967 C 150.077 53.897,150.248 53.748,150.456 53.636 C 150.664 53.525,151.012 53.059,151.229 52.601 L 151.623 51.769 151.623 46.406 L 151.623 41.042 152.088 41.606 C 152.500 42.106,153.461 43.109,158.733 48.537 C 160.381 50.235,163.598 53.466,163.997 53.825 C 164.428 54.214,166.369 54.205,166.965 53.812 C 167.710 53.321,167.841 53.019,167.847 51.792 C 167.853 50.405,167.817 50.351,165.353 47.967 C 164.399 47.045,163.054 45.734,162.362 45.054 C 160.674 43.394,155.670 38.628,155.139 38.174 C 154.644 37.751,154.613 37.612,154.985 37.489 C 155.133 37.440,155.533 37.151,155.873 36.847 C 156.213 36.544,156.709 36.145,156.974 35.961 C 157.884 35.329,159.274 34.247,159.628 33.893 C 159.823 33.699,160.036 33.539,160.102 33.539 C 160.167 33.539,160.355 33.415,160.520 33.262 C 160.796 33.006,161.520 32.448,163.354 31.076 C 163.745 30.784,164.274 30.349,164.529 30.110 C 164.784 29.870,165.098 29.640,165.228 29.598 C 166.150 29.300,166.600 27.227,165.982 26.128 C 165.182 24.704,162.774 24.700,161.515 26.120 C 161.399 26.251,159.209 27.985,158.500 28.508 C 158.161 28.759,157.778 29.073,157.651 29.206 C 157.523 29.338,157.141 29.648,156.801 29.893 C 156.461 30.139,156.113 30.420,156.028 30.518 C 155.943 30.616,155.556 30.913,155.169 31.178 C 154.781 31.442,154.364 31.779,154.242 31.927 C 154.119 32.075,153.636 32.476,153.169 32.819 C 152.701 33.161,152.206 33.568,152.068 33.722 C 151.931 33.877,151.774 34.003,151.721 34.003 C 151.667 34.003,151.623 29.635,151.623 24.295 C 151.623 15.999,151.590 14.544,151.396 14.288 C 151.271 14.123,151.167 13.879,151.164 13.745 C 151.161 13.612,150.931 13.247,150.653 12.934 L 150.147 12.365 148.644 12.365 C 147.397 12.365,147.141 12.405,147.141 12.601 M175.339 12.867 C 175.089 13.143,174.797 13.525,174.691 13.715 C 174.442 14.160,174.404 52.320,174.652 52.473 C 174.737 52.525,174.807 52.674,174.807 52.803 C 174.807 53.496,175.736 54.016,177.075 54.073 L 178.362 54.128 179.058 53.392 C 179.578 52.841,179.753 52.533,179.753 52.170 C 179.753 51.903,179.823 51.615,179.909 51.529 C 180.095 51.342,180.037 15.172,179.849 14.451 C 179.695 13.862,179.252 12.983,179.110 12.983 C 179.050 12.983,178.957 12.844,178.903 12.674 C 178.711 12.070,175.925 12.221,175.339 12.867 M35.703 15.600 C 35.703 15.679,35.554 15.792,35.372 15.849 C 35.004 15.966,34.158 16.773,34.158 17.007 C 34.158 17.089,34.088 17.156,34.003 17.156 C 33.774 17.156,33.807 19.871,34.042 20.279 C 34.148 20.463,34.386 20.758,34.570 20.933 C 35.466 21.784,35.491 21.793,36.994 21.793 L 38.436 21.793 39.068 21.173 C 40.773 19.502,40.599 17.321,38.649 15.908 C 38.014 15.449,35.703 15.207,35.703 15.600 M251.061 15.688 C 251.012 15.815,250.887 15.920,250.783 15.920 C 250.262 15.920,249.150 17.814,249.150 18.702 C 249.150 19.598,250.271 21.474,250.811 21.481 C 250.918 21.483,251.005 21.553,251.005 21.638 C 251.005 22.072,253.940 21.810,254.452 21.330 C 254.724 21.075,254.998 20.867,255.062 20.866 C 255.126 20.866,255.178 20.775,255.178 20.665 C 255.178 20.554,255.261 20.380,255.364 20.278 C 255.730 19.912,255.917 18.752,255.723 18.045 C 255.514 17.280,255.172 16.538,255.028 16.538 C 254.972 16.538,254.792 16.416,254.627 16.266 C 253.881 15.589,253.501 15.456,252.319 15.456 C 251.422 15.456,251.129 15.510,251.061 15.688 M52.473 16.383 C 52.420 16.468,52.208 16.538,52.000 16.538 C 51.793 16.538,51.623 16.603,51.623 16.682 C 51.623 16.761,51.485 16.870,51.316 16.923 C 50.561 17.163,50.232 18.753,50.232 22.159 L 50.232 25.039 48.832 25.039 L 47.432 25.039 46.745 25.735 C 46.090 26.400,46.059 26.472,46.059 27.340 C 46.059 29.192,46.858 29.827,49.189 29.829 L 50.232 29.830 50.232 40.529 C 50.232 50.972,50.308 52.859,50.731 52.859 C 50.796 52.859,50.850 52.930,50.850 53.016 C 50.850 54.039,53.676 54.522,54.699 53.675 C 55.856 52.716,55.796 53.411,55.796 40.964 L 55.796 29.830 56.952 29.830 C 58.257 29.830,59.259 29.509,59.544 29.000 C 60.057 28.083,60.268 27.001,59.969 26.816 C 59.884 26.764,59.815 26.599,59.815 26.450 C 59.815 25.559,58.618 24.979,56.955 25.063 L 55.796 25.122 55.796 21.826 C 55.796 17.870,55.331 16.538,53.950 16.538 C 53.700 16.538,53.453 16.468,53.400 16.383 C 53.348 16.298,53.139 16.229,52.937 16.229 C 52.734 16.229,52.525 16.298,52.473 16.383 M372.900 23.548 C 371.178 27.275,362.672 39.567,361.814 39.567 C 361.733 39.567,360.329 39.227,358.693 38.811 C 357.057 38.395,354.524 37.830,353.064 37.556 L 350.410 37.058 352.558 35.765 C 353.740 35.054,356.256 33.488,358.150 32.284 C 361.382 30.230,362.995 29.156,368.451 25.429 C 371.164 23.576,373.289 22.233,373.375 22.319 C 373.410 22.354,373.196 22.907,372.900 23.548 M9.737 25.263 C 9.525 25.389,9.125 25.494,8.849 25.497 C 8.572 25.500,8.346 25.572,8.346 25.657 C 8.346 25.742,8.181 25.811,7.979 25.811 C 7.777 25.811,7.525 25.916,7.419 26.043 C 7.313 26.171,7.113 26.277,6.975 26.279 C 6.837 26.280,6.549 26.418,6.337 26.584 C 6.124 26.750,5.867 26.888,5.765 26.890 C 5.663 26.892,5.524 26.982,5.456 27.091 C 5.388 27.199,4.965 27.576,4.517 27.928 C 3.206 28.957,2.176 30.337,1.193 32.380 C 1.030 32.720,0.799 33.195,0.680 33.436 C 0.561 33.677,0.464 33.999,0.464 34.151 C 0.464 34.304,0.359 34.516,0.232 34.621 C -0.116 34.910,-0.116 44.435,0.232 44.569 C 0.364 44.620,0.464 44.851,0.464 45.108 C 0.464 45.355,0.568 45.644,0.696 45.750 C 0.823 45.855,0.927 46.069,0.927 46.223 C 0.927 46.378,0.997 46.547,1.082 46.600 C 1.167 46.652,1.236 46.804,1.236 46.936 C 1.236 47.218,2.785 49.614,2.968 49.614 C 3.036 49.614,3.091 49.682,3.091 49.765 C 3.091 50.162,5.874 52.550,6.337 52.550 C 6.422 52.550,6.491 52.620,6.491 52.705 C 6.491 52.790,6.633 52.859,6.805 52.859 C 6.978 52.859,7.159 52.964,7.208 53.091 C 7.257 53.219,7.460 53.323,7.658 53.323 C 7.857 53.323,8.062 53.393,8.114 53.478 C 8.167 53.563,8.371 53.632,8.568 53.632 C 8.765 53.632,9.176 53.736,9.482 53.864 C 10.270 54.194,14.571 54.193,15.203 53.863 C 15.447 53.736,15.744 53.632,15.863 53.632 C 15.983 53.632,16.356 53.458,16.692 53.246 C 17.029 53.033,17.375 52.859,17.462 52.859 C 17.549 52.859,17.620 52.790,17.620 52.705 C 17.620 52.620,17.715 52.550,17.832 52.550 C 17.948 52.550,18.313 52.272,18.643 51.932 C 18.973 51.592,19.277 51.314,19.320 51.314 C 19.458 51.313,19.298 54.478,19.152 54.629 C 19.075 54.710,19.011 55.071,19.011 55.431 C 19.011 55.792,18.941 56.130,18.856 56.182 C 18.771 56.235,18.702 56.439,18.702 56.636 C 18.702 56.833,18.597 57.081,18.470 57.187 C 18.342 57.293,18.238 57.475,18.238 57.592 C 18.238 57.709,18.168 57.805,18.083 57.805 C 17.998 57.805,17.929 57.893,17.929 58.000 C 17.929 58.262,16.746 59.468,16.372 59.586 C 16.208 59.638,16.074 59.746,16.074 59.825 C 16.074 59.904,16.001 59.969,15.912 59.969 C 15.823 59.969,15.462 60.108,15.110 60.278 C 14.758 60.448,14.288 60.587,14.064 60.587 C 13.840 60.587,13.303 60.692,12.871 60.821 C 12.169 61.029,11.988 61.029,11.187 60.821 C 10.694 60.692,10.066 60.587,9.791 60.587 C 9.517 60.587,9.249 60.518,9.196 60.433 C 9.144 60.348,8.971 60.278,8.813 60.278 C 8.492 60.278,6.374 59.245,6.055 58.933 C 5.943 58.823,5.752 58.733,5.630 58.733 C 5.509 58.733,5.410 58.676,5.410 58.607 C 5.410 58.538,5.169 58.387,4.875 58.271 C 4.581 58.156,4.305 57.969,4.262 57.856 C 4.133 57.520,1.709 57.585,1.314 57.934 C 0.101 59.007,0.217 61.365,1.522 62.188 C 1.637 62.261,1.844 62.452,1.982 62.613 C 2.120 62.774,2.297 62.906,2.377 62.906 C 2.456 62.906,2.749 63.080,3.028 63.292 C 3.306 63.505,3.608 63.679,3.699 63.679 C 3.790 63.679,3.864 63.748,3.864 63.833 C 3.864 63.918,4.020 63.990,4.212 63.993 C 4.403 63.995,4.695 64.100,4.860 64.224 C 5.025 64.349,5.288 64.451,5.444 64.451 C 5.600 64.451,5.768 64.556,5.817 64.683 C 5.973 65.089,17.163 65.025,17.533 64.616 C 17.682 64.452,17.901 64.355,18.019 64.400 C 18.138 64.446,18.278 64.372,18.331 64.236 C 18.383 64.099,18.499 63.988,18.588 63.988 C 18.677 63.988,18.978 63.814,19.256 63.601 C 19.535 63.389,19.818 63.215,19.885 63.215 C 20.084 63.215,22.411 60.698,22.411 60.482 C 22.411 60.426,22.508 60.270,22.627 60.136 C 22.948 59.773,23.493 58.754,23.493 58.515 C 23.493 58.400,23.597 58.220,23.725 58.114 C 23.852 58.009,23.957 57.761,23.957 57.564 C 23.957 57.367,24.026 57.162,24.111 57.110 C 24.196 57.057,24.266 56.752,24.266 56.431 C 24.266 56.110,24.318 55.795,24.382 55.732 C 24.770 55.344,24.867 52.269,24.876 40.097 C 24.885 26.182,24.893 26.310,23.984 25.716 C 23.757 25.567,23.478 25.354,23.366 25.242 C 23.072 24.949,21.265 24.970,20.965 25.270 C 20.837 25.398,20.639 25.502,20.525 25.502 C 20.084 25.502,19.197 27.122,19.378 27.595 C 19.590 28.147,19.279 28.081,18.635 27.437 C 18.263 27.064,17.643 26.616,17.257 26.441 C 16.872 26.265,16.514 26.052,16.461 25.966 C 16.408 25.881,16.230 25.811,16.065 25.811 C 15.900 25.811,15.765 25.742,15.765 25.657 C 15.765 25.572,15.527 25.502,15.237 25.502 C 14.947 25.502,14.680 25.415,14.645 25.309 C 14.543 25.002,10.246 24.962,9.737 25.263 M35.703 25.270 C 35.597 25.398,35.430 25.502,35.332 25.502 C 35.120 25.502,34.800 25.881,34.428 26.571 C 34.025 27.319,34.010 51.814,34.412 52.597 C 35.528 54.770,39.413 54.598,39.413 52.374 C 39.413 52.226,39.482 52.062,39.567 52.009 C 39.780 51.878,39.780 27.257,39.567 27.125 C 39.482 27.073,39.410 26.877,39.408 26.691 C 39.390 25.489,36.456 24.364,35.703 25.270 M67.923 25.203 C 67.867 25.293,67.672 25.424,67.489 25.493 C 67.306 25.563,66.999 25.913,66.808 26.271 L 66.461 26.923 66.461 39.575 C 66.461 53.212,66.428 52.667,67.296 53.555 C 67.772 54.041,70.479 54.392,70.479 53.967 C 70.479 53.879,70.613 53.765,70.777 53.713 C 71.114 53.606,71.716 52.674,71.716 52.258 C 71.716 52.107,71.749 51.950,71.790 51.910 C 71.830 51.869,71.882 47.771,71.906 42.803 C 71.934 36.585,72.001 33.675,72.118 33.462 C 72.212 33.292,72.420 32.880,72.582 32.546 C 72.886 31.916,73.874 30.757,74.108 30.757 C 74.181 30.757,74.351 30.667,74.486 30.557 C 75.154 30.010,78.893 29.682,79.342 30.131 C 79.432 30.220,79.649 30.294,79.824 30.294 C 80.258 30.294,81.781 31.339,81.876 31.702 C 81.918 31.862,81.998 31.994,82.054 31.994 C 82.110 31.994,82.283 32.255,82.439 32.573 C 82.596 32.892,82.803 33.292,82.899 33.462 C 83.022 33.678,83.104 36.527,83.171 42.890 C 83.269 52.194,83.304 52.818,83.749 53.228 C 84.715 54.120,84.655 54.096,85.896 54.096 C 87.034 54.096,87.122 54.070,87.635 53.593 C 88.774 52.536,88.717 53.094,88.717 43.041 C 88.717 37.195,88.772 33.988,88.872 33.926 C 88.957 33.873,89.026 33.657,89.026 33.446 C 89.026 32.498,91.034 30.308,91.911 30.297 C 92.096 30.295,92.271 30.220,92.301 30.129 C 92.376 29.904,96.115 29.901,96.340 30.126 C 96.432 30.218,96.624 30.294,96.766 30.294 C 96.909 30.294,97.111 30.397,97.217 30.524 C 97.322 30.650,97.454 30.725,97.511 30.690 C 97.770 30.530,99.382 32.369,99.382 32.824 C 99.382 32.953,99.444 33.096,99.520 33.143 C 99.820 33.328,99.889 34.877,99.981 43.509 L 100.077 52.473 100.461 53.041 C 101.482 54.549,104.252 54.514,105.016 52.982 C 105.304 52.404,105.386 33.020,105.100 32.844 C 105.015 32.791,104.946 32.543,104.946 32.292 C 104.946 32.041,104.886 31.714,104.813 31.567 C 104.685 31.306,104.335 30.634,103.967 29.940 C 103.326 28.730,101.733 27.053,100.695 26.496 C 100.259 26.261,99.354 25.792,99.036 25.635 C 98.888 25.562,98.576 25.500,98.341 25.497 C 98.106 25.495,97.778 25.390,97.613 25.266 C 97.180 24.938,93.155 24.943,92.525 25.271 C 92.281 25.398,91.899 25.507,91.675 25.514 C 91.451 25.520,91.059 25.655,90.804 25.814 C 90.549 25.973,90.057 26.253,89.710 26.435 C 89.030 26.793,87.708 27.989,86.901 28.976 C 86.557 29.398,86.399 29.507,86.399 29.323 C 86.399 28.994,84.267 26.733,83.664 26.422 C 83.426 26.299,83.175 26.111,83.107 26.005 C 83.039 25.898,82.870 25.811,82.731 25.811 C 82.403 25.811,81.491 25.529,80.938 25.255 C 80.307 24.943,76.682 24.951,76.266 25.266 C 76.101 25.390,75.740 25.495,75.464 25.497 C 75.187 25.500,74.961 25.572,74.961 25.657 C 74.961 25.742,74.831 25.811,74.671 25.811 C 74.512 25.811,74.294 25.916,74.189 26.043 C 74.083 26.171,73.900 26.275,73.781 26.275 C 73.663 26.275,73.202 26.621,72.757 27.044 L 71.947 27.812 71.773 27.133 C 71.589 26.413,71.026 25.502,70.767 25.502 C 70.681 25.502,70.507 25.398,70.380 25.270 C 70.106 24.996,68.085 24.941,67.923 25.203 M123.107 25.268 C 121.934 25.661,121.384 25.811,121.125 25.811 C 120.982 25.811,120.866 25.868,120.866 25.936 C 120.866 26.005,120.570 26.190,120.209 26.348 C 119.847 26.506,119.337 26.797,119.074 26.996 C 118.810 27.195,118.546 27.357,118.486 27.357 C 118.339 27.357,116.410 29.307,115.861 30.012 C 115.348 30.671,115.248 30.841,114.549 32.255 C 114.263 32.834,113.968 33.428,113.892 33.576 C 113.817 33.724,113.756 33.980,113.756 34.146 C 113.756 34.313,113.686 34.492,113.601 34.544 C 113.516 34.597,113.444 34.862,113.441 35.133 C 113.438 35.404,113.336 35.800,113.215 36.012 C 112.888 36.585,112.883 42.931,113.210 43.363 C 113.335 43.528,113.439 43.920,113.442 44.234 C 113.444 44.547,113.516 44.847,113.601 44.900 C 113.686 44.952,113.756 45.196,113.756 45.440 C 113.756 45.685,113.825 45.929,113.910 45.981 C 113.995 46.034,114.065 46.203,114.065 46.358 C 114.065 46.513,114.169 46.726,114.297 46.832 C 114.424 46.937,114.529 47.155,114.529 47.314 C 114.529 47.474,114.598 47.604,114.683 47.604 C 114.768 47.604,114.838 47.743,114.838 47.913 C 114.838 48.083,114.891 48.223,114.957 48.223 C 115.023 48.223,115.208 48.466,115.368 48.764 C 116.452 50.777,120.492 53.620,122.282 53.630 C 122.509 53.631,122.723 53.719,122.759 53.825 C 122.866 54.147,128.531 54.191,129.285 53.876 C 129.605 53.742,130.064 53.632,130.303 53.632 C 130.543 53.632,130.782 53.563,130.835 53.478 C 130.887 53.393,131.126 53.323,131.366 53.323 C 131.605 53.323,131.877 53.232,131.969 53.121 C 132.062 53.009,132.495 52.821,132.933 52.702 C 133.371 52.582,133.763 52.395,133.805 52.286 C 133.847 52.176,134.013 52.087,134.174 52.087 C 134.335 52.087,134.467 52.034,134.467 51.970 C 134.467 51.905,134.677 51.760,134.935 51.646 C 135.519 51.387,137.558 49.491,137.558 49.206 C 137.558 49.090,137.628 48.995,137.713 48.995 C 137.802 48.995,137.867 48.506,137.867 47.836 C 137.867 47.166,137.802 46.677,137.713 46.677 C 137.628 46.677,137.558 46.590,137.558 46.484 C 137.558 45.624,135.760 45.192,134.811 45.825 C 133.736 46.543,133.463 46.747,133.212 47.022 C 133.075 47.172,132.914 47.295,132.854 47.295 C 132.795 47.295,132.518 47.469,132.239 47.682 C 131.961 47.894,131.618 48.068,131.477 48.068 C 131.336 48.068,131.221 48.138,131.221 48.223 C 131.221 48.308,131.077 48.377,130.901 48.377 C 130.725 48.377,130.476 48.481,130.349 48.609 C 130.221 48.736,129.962 48.841,129.773 48.841 C 129.583 48.841,129.356 48.913,129.267 49.002 C 129.041 49.228,123.908 49.234,123.832 49.009 C 123.802 48.916,123.582 48.841,123.345 48.841 C 123.107 48.841,122.826 48.736,122.720 48.609 C 122.614 48.481,122.397 48.377,122.238 48.377 C 122.078 48.377,121.947 48.323,121.947 48.256 C 121.947 48.189,121.721 48.002,121.445 47.839 C 120.666 47.380,119.320 45.871,119.320 45.457 C 119.320 45.363,119.250 45.286,119.165 45.286 C 119.080 45.286,119.011 45.116,119.011 44.909 C 119.011 44.701,118.941 44.488,118.856 44.436 C 118.771 44.383,118.699 44.118,118.696 43.847 C 118.693 43.576,118.591 43.180,118.470 42.968 C 118.348 42.755,118.246 42.407,118.243 42.195 L 118.238 41.808 127.318 41.856 C 135.038 41.896,136.468 41.870,136.862 41.678 C 137.117 41.553,137.436 41.417,137.571 41.374 C 138.182 41.181,138.679 39.687,138.589 38.309 C 138.482 36.653,138.243 35.244,138.032 35.034 C 137.941 34.943,137.867 34.639,137.867 34.359 C 137.867 34.078,137.798 33.849,137.713 33.849 C 137.628 33.849,137.558 33.720,137.558 33.562 C 137.558 33.405,137.384 32.949,137.172 32.550 C 136.959 32.150,136.785 31.749,136.785 31.659 C 136.785 31.075,133.324 27.196,132.596 26.965 C 132.435 26.914,132.303 26.808,132.303 26.728 C 132.303 26.649,132.181 26.579,132.032 26.573 C 131.884 26.567,131.553 26.428,131.298 26.266 C 131.043 26.103,130.730 25.929,130.603 25.879 C 130.475 25.829,130.250 25.724,130.103 25.646 C 129.955 25.567,129.677 25.500,129.484 25.497 C 129.292 25.494,128.961 25.392,128.748 25.270 C 128.226 24.972,123.998 24.970,123.107 25.268 M198.223 25.149 C 198.053 25.190,197.847 25.286,197.767 25.363 C 197.686 25.440,197.394 25.502,197.119 25.502 C 196.843 25.502,196.575 25.572,196.522 25.657 C 196.470 25.742,196.261 25.811,196.059 25.811 C 195.856 25.811,195.649 25.879,195.598 25.962 C 195.546 26.045,195.247 26.232,194.932 26.379 C 193.570 27.012,190.726 29.556,190.726 30.140 C 190.726 30.225,190.657 30.294,190.572 30.294 C 190.487 30.294,190.417 30.400,190.417 30.530 C 190.417 30.661,190.313 30.807,190.185 30.856 C 190.058 30.905,189.954 31.071,189.954 31.225 C 189.954 31.379,189.901 31.528,189.838 31.556 C 189.655 31.637,189.181 32.556,189.181 32.829 C 189.181 32.965,189.111 33.076,189.026 33.076 C 188.941 33.076,188.872 33.246,188.872 33.453 C 188.872 33.661,188.802 33.873,188.717 33.926 C 188.632 33.978,188.560 34.208,188.557 34.437 C 188.554 34.666,188.452 35.027,188.331 35.240 C 188.209 35.452,188.107 35.942,188.104 36.329 C 188.101 36.716,188.026 37.106,187.936 37.195 C 187.592 37.539,187.949 43.396,188.348 43.967 C 188.466 44.135,188.563 44.462,188.563 44.693 C 188.563 44.924,188.632 45.156,188.717 45.209 C 188.802 45.261,188.872 45.429,188.872 45.582 C 188.872 45.939,189.878 47.921,190.566 48.918 C 191.746 50.628,195.093 53.323,196.037 53.323 C 196.176 53.323,196.291 53.393,196.291 53.478 C 196.291 53.563,196.489 53.632,196.731 53.632 C 196.972 53.632,197.392 53.742,197.662 53.877 C 198.295 54.193,203.255 54.148,203.362 53.825 C 203.397 53.719,203.664 53.632,203.954 53.632 C 204.245 53.632,204.482 53.563,204.482 53.478 C 204.482 53.393,204.582 53.323,204.703 53.323 C 204.824 53.323,205.016 53.236,205.128 53.130 C 205.240 53.024,205.529 52.835,205.770 52.711 C 206.010 52.586,206.654 52.049,207.199 51.517 L 208.192 50.548 208.192 51.614 C 208.192 53.226,208.926 53.987,210.559 54.070 C 211.450 54.115,211.726 54.075,211.888 53.879 C 212.001 53.743,212.187 53.632,212.301 53.632 C 212.530 53.632,212.794 53.219,213.092 52.396 C 213.380 51.600,213.376 27.533,213.088 26.707 C 212.880 26.110,212.420 25.502,212.175 25.502 C 212.097 25.502,211.929 25.398,211.802 25.270 C 210.682 24.151,208.192 25.695,208.192 27.509 C 208.192 28.235,207.973 28.546,207.793 28.078 C 207.697 27.827,205.682 26.275,205.452 26.275 C 205.362 26.275,205.248 26.171,205.199 26.043 C 205.150 25.916,204.973 25.811,204.805 25.811 C 204.638 25.811,204.457 25.742,204.405 25.657 C 204.352 25.572,204.122 25.500,203.894 25.497 C 203.665 25.494,203.304 25.392,203.091 25.270 C 202.713 25.054,199.002 24.961,198.223 25.149 M221.989 25.330 C 221.715 25.467,221.489 25.658,221.487 25.754 C 221.485 25.850,221.379 26.015,221.252 26.121 C 221.124 26.226,221.020 26.509,221.020 26.749 C 221.020 26.988,220.950 27.227,220.865 27.280 C 220.762 27.344,220.762 27.472,220.865 27.665 C 220.950 27.825,221.020 28.087,221.020 28.248 C 221.020 28.410,221.256 28.814,221.543 29.147 L 222.066 29.753 228.267 29.798 C 233.346 29.835,234.467 29.881,234.467 30.052 C 234.467 30.167,234.362 30.301,234.235 30.350 C 234.107 30.398,234.003 30.545,234.003 30.675 C 234.003 30.805,233.934 30.912,233.849 30.912 C 233.764 30.912,233.694 30.981,233.694 31.066 C 233.694 31.151,233.346 31.707,232.921 32.303 C 232.496 32.899,232.148 33.455,232.148 33.540 C 232.148 33.625,232.079 33.694,231.994 33.694 C 231.909 33.694,231.839 33.782,231.839 33.889 C 231.839 33.996,231.665 34.271,231.453 34.500 C 231.240 34.729,231.066 34.956,231.066 35.003 C 231.066 35.136,229.459 37.474,229.328 37.532 C 229.264 37.561,229.212 37.648,229.212 37.727 C 229.212 37.900,227.638 40.241,227.473 40.314 C 227.409 40.343,227.357 40.464,227.357 40.585 C 227.357 40.705,227.287 40.804,227.202 40.804 C 227.117 40.804,227.048 40.873,227.048 40.958 C 227.048 41.042,226.700 41.599,226.275 42.195 C 225.850 42.790,225.502 43.313,225.502 43.357 C 225.502 43.484,223.890 45.822,223.764 45.878 C 223.700 45.907,223.648 46.028,223.648 46.149 C 223.648 46.269,223.578 46.368,223.493 46.368 C 223.408 46.368,223.338 46.437,223.338 46.522 C 223.338 46.607,222.991 47.163,222.566 47.759 C 222.141 48.355,221.793 48.885,221.793 48.937 C 221.793 48.989,221.563 49.354,221.282 49.747 C 220.100 51.406,220.064 52.717,221.175 53.733 L 221.561 54.086 231.453 54.085 L 241.345 54.085 241.739 53.743 C 242.636 52.965,243.046 51.055,242.427 50.541 C 242.299 50.435,242.195 50.268,242.195 50.169 C 242.195 49.334,240.377 49.121,233.733 49.177 C 230.481 49.205,227.821 49.209,227.821 49.187 C 227.821 49.085,229.457 46.748,229.560 46.703 C 229.623 46.674,229.675 46.553,229.675 46.432 C 229.675 46.312,229.745 46.213,229.830 46.213 C 229.915 46.213,229.985 46.144,229.985 46.059 C 229.985 45.974,230.506 45.172,231.144 44.276 C 231.781 43.381,232.303 42.581,232.303 42.499 C 232.303 42.416,232.372 42.349,232.457 42.349 C 232.543 42.349,232.612 42.262,232.612 42.155 C 232.612 42.047,232.786 41.772,232.998 41.543 C 233.211 41.314,233.385 41.084,233.385 41.032 C 233.385 40.980,233.802 40.350,234.312 39.632 C 234.822 38.914,235.240 38.258,235.240 38.174 C 235.240 38.090,235.309 38.022,235.394 38.022 C 235.479 38.022,235.549 37.934,235.549 37.827 C 235.549 37.720,235.723 37.445,235.935 37.215 C 236.148 36.986,236.321 36.753,236.321 36.697 C 236.321 36.641,236.565 36.263,236.862 35.858 C 237.160 35.452,237.403 35.051,237.403 34.965 C 237.403 34.879,237.493 34.775,237.602 34.733 C 237.711 34.691,237.969 34.328,238.176 33.926 C 238.383 33.524,238.641 33.161,238.751 33.119 C 238.860 33.077,238.949 32.980,238.949 32.903 C 238.949 32.733,240.524 30.392,240.688 30.319 C 240.752 30.291,240.804 30.169,240.804 30.049 C 240.804 29.929,240.862 29.830,240.933 29.830 C 241.005 29.830,241.196 29.553,241.358 29.214 C 241.521 28.874,241.706 28.596,241.770 28.595 C 241.833 28.594,241.886 28.399,241.886 28.161 C 241.886 27.923,241.967 27.647,242.066 27.547 C 242.357 27.257,241.934 26.125,241.316 25.543 L 240.782 25.039 231.635 25.060 C 223.552 25.078,222.430 25.109,221.989 25.330 M250.642 25.768 L 249.923 26.497 249.923 39.582 L 249.923 52.666 250.623 53.397 L 251.323 54.127 252.600 54.073 C 253.794 54.022,253.906 53.988,254.334 53.539 C 255.226 52.604,255.178 53.392,255.178 39.664 C 255.178 29.774,255.135 26.847,254.985 26.563 C 254.335 25.334,253.847 25.039,252.462 25.039 L 251.360 25.039 250.642 25.768 M265.914 25.203 C 265.858 25.293,265.663 25.424,265.479 25.493 C 265.296 25.563,264.990 25.913,264.799 26.271 L 264.451 26.923 264.451 39.575 C 264.451 53.212,264.419 52.667,265.287 53.555 C 265.846 54.126,268.228 54.367,268.501 53.881 C 268.577 53.744,268.734 53.632,268.849 53.632 C 269.095 53.632,269.706 52.653,269.706 52.258 C 269.706 52.107,269.740 51.950,269.780 51.910 C 269.821 51.869,269.873 47.764,269.896 42.788 C 269.926 36.440,269.989 33.677,270.110 33.524 C 270.205 33.405,270.328 33.116,270.383 32.883 C 270.439 32.649,270.553 32.457,270.637 32.457 C 270.720 32.457,270.788 32.382,270.788 32.290 C 270.788 32.055,271.873 30.757,272.070 30.757 C 272.159 30.757,272.342 30.667,272.476 30.557 C 273.145 30.010,276.884 29.682,277.333 30.131 C 277.423 30.220,277.633 30.294,277.799 30.294 C 278.617 30.294,280.680 32.264,280.680 33.045 C 280.680 33.198,280.767 33.410,280.873 33.516 C 281.022 33.665,281.076 35.762,281.110 42.705 C 281.139 48.736,281.209 51.853,281.323 52.164 C 281.720 53.250,281.847 53.467,282.182 53.619 C 282.376 53.708,282.535 53.851,282.535 53.938 C 282.535 54.393,285.069 54.110,285.626 53.593 C 286.765 52.536,286.708 53.094,286.708 43.041 C 286.708 37.195,286.762 33.988,286.862 33.926 C 286.947 33.873,287.017 33.657,287.017 33.446 C 287.017 32.510,289.061 30.294,289.923 30.294 C 290.096 30.294,290.262 30.220,290.292 30.129 C 290.363 29.916,293.983 29.902,294.379 30.113 C 294.538 30.198,294.911 30.375,295.209 30.506 C 296.081 30.891,297.372 32.274,297.372 32.824 C 297.372 32.953,297.435 33.096,297.511 33.143 C 297.810 33.328,297.879 34.877,297.972 43.509 C 298.078 53.440,298.004 52.777,299.109 53.693 C 299.896 54.344,301.707 54.287,302.512 53.584 L 303.091 53.078 303.091 42.398 C 303.091 33.047,303.062 31.707,302.859 31.629 C 302.732 31.580,302.628 31.439,302.628 31.316 C 302.628 31.054,302.140 30.086,301.971 30.010 C 301.907 29.982,301.855 29.892,301.855 29.811 C 301.855 29.289,299.662 27.000,298.668 26.484 C 298.472 26.383,298.083 26.180,297.803 26.033 C 296.858 25.538,296.759 25.502,296.331 25.497 C 296.096 25.495,295.769 25.390,295.604 25.266 C 295.171 24.938,291.146 24.943,290.516 25.271 C 290.272 25.398,289.872 25.502,289.627 25.502 C 289.382 25.502,289.181 25.572,289.181 25.657 C 289.181 25.742,289.050 25.811,288.891 25.811 C 288.731 25.811,288.514 25.916,288.408 26.043 C 288.302 26.171,288.150 26.275,288.069 26.275 C 287.663 26.275,285.893 27.764,284.954 28.896 C 284.582 29.343,284.491 29.388,284.375 29.181 C 283.889 28.311,281.772 26.275,281.355 26.275 C 281.257 26.275,281.137 26.171,281.088 26.043 C 281.039 25.916,280.880 25.811,280.735 25.811 C 280.395 25.811,279.490 25.533,278.929 25.255 C 278.297 24.943,274.673 24.951,274.257 25.266 C 274.092 25.390,273.731 25.495,273.454 25.497 C 273.178 25.500,272.952 25.572,272.952 25.657 C 272.952 25.742,272.786 25.811,272.582 25.811 C 272.379 25.811,272.172 25.916,272.123 26.043 C 272.074 26.171,271.927 26.275,271.796 26.275 C 271.665 26.275,271.193 26.621,270.748 27.044 L 269.938 27.812 269.769 27.152 C 269.387 25.661,268.580 25.039,267.031 25.039 C 266.472 25.039,265.970 25.112,265.914 25.203 M14.606 30.135 C 14.776 30.207,15.019 30.307,15.147 30.358 C 16.136 30.752,17.682 32.078,18.101 32.892 C 18.219 33.121,18.402 33.363,18.508 33.431 C 18.615 33.499,18.702 33.686,18.702 33.847 C 18.702 34.008,18.771 34.182,18.856 34.235 C 18.941 34.287,19.011 34.466,19.011 34.633 C 19.011 34.799,19.072 35.055,19.147 35.203 C 19.648 36.188,20.048 41.921,19.650 42.402 C 19.569 42.501,19.456 42.859,19.400 43.199 C 19.344 43.539,19.233 43.974,19.154 44.165 C 18.963 44.629,18.750 45.156,18.639 45.440 C 18.384 46.097,16.755 48.068,16.468 48.068 C 16.404 48.068,16.144 48.242,15.891 48.454 C 15.639 48.667,15.278 48.841,15.089 48.841 C 14.900 48.841,14.675 48.911,14.590 48.996 C 14.377 49.209,10.516 49.218,10.304 49.006 C 10.213 48.915,9.979 48.841,9.784 48.841 C 9.588 48.841,9.428 48.771,9.428 48.686 C 9.428 48.601,9.319 48.532,9.185 48.532 C 8.823 48.532,6.720 46.346,6.418 45.655 C 6.273 45.324,6.057 44.869,5.937 44.644 C 5.817 44.418,5.719 44.092,5.719 43.919 C 5.719 43.746,5.649 43.561,5.564 43.509 C 5.479 43.456,5.410 43.048,5.410 42.603 C 5.410 42.157,5.336 41.719,5.246 41.629 C 4.969 41.352,5.267 35.957,5.578 35.634 C 5.655 35.553,5.719 35.335,5.719 35.150 C 5.719 34.965,5.823 34.727,5.951 34.621 C 6.078 34.516,6.182 34.340,6.182 34.231 C 6.182 33.547,8.466 30.757,9.026 30.757 C 9.141 30.757,9.322 30.653,9.428 30.526 C 9.534 30.398,9.821 30.294,10.065 30.294 C 10.310 30.294,10.510 30.227,10.510 30.146 C 10.510 29.869,13.956 29.859,14.606 30.135 M128.207 30.181 C 128.547 30.280,128.917 30.451,129.030 30.559 C 129.142 30.668,129.329 30.757,129.446 30.757 C 129.759 30.757,131.456 32.380,131.749 32.960 C 131.888 33.236,132.059 33.566,132.129 33.694 C 132.526 34.423,132.612 34.652,132.612 34.975 C 132.612 35.171,132.691 35.411,132.787 35.507 C 132.883 35.603,132.970 36.069,132.980 36.543 L 132.998 37.405 125.673 37.407 C 117.484 37.410,118.113 37.477,118.451 36.634 C 118.589 36.289,118.702 35.768,118.702 35.477 C 118.702 35.187,118.771 34.906,118.856 34.853 C 118.941 34.801,119.016 34.605,119.022 34.419 C 119.028 34.233,119.167 33.872,119.330 33.617 C 119.492 33.362,119.674 33.052,119.733 32.928 C 120.160 32.037,122.322 30.294,123.001 30.294 C 123.153 30.294,123.343 30.228,123.423 30.148 C 123.743 29.831,127.089 29.854,128.207 30.181 M202.628 30.152 C 202.628 30.230,202.803 30.294,203.017 30.294 C 204.337 30.294,207.419 33.834,207.419 35.351 C 207.419 35.534,207.488 35.728,207.573 35.781 C 207.658 35.833,207.728 36.211,207.728 36.621 C 207.728 37.030,207.832 37.615,207.960 37.921 C 208.256 38.629,208.258 40.529,207.964 41.345 C 207.842 41.685,207.738 42.289,207.735 42.688 C 207.731 43.087,207.658 43.456,207.573 43.509 C 207.488 43.561,207.418 43.722,207.418 43.865 C 207.414 44.884,204.878 48.377,204.142 48.377 C 203.984 48.377,203.814 48.481,203.765 48.609 C 203.716 48.736,203.524 48.841,203.337 48.841 C 203.151 48.841,202.924 48.915,202.834 49.006 C 202.622 49.218,198.761 49.209,198.548 48.996 C 198.462 48.911,198.259 48.841,198.096 48.841 C 197.574 48.841,195.225 46.993,195.214 46.574 C 195.211 46.475,195.154 46.370,195.088 46.342 C 195.021 46.314,194.770 45.873,194.530 45.363 C 194.289 44.853,194.030 44.315,193.955 44.167 C 193.879 44.020,193.818 43.732,193.818 43.528 C 193.818 43.324,193.714 42.958,193.587 42.715 C 193.261 42.090,193.260 37.045,193.586 36.476 C 193.707 36.264,193.809 35.897,193.812 35.663 C 193.815 35.428,193.879 35.115,193.955 34.967 C 194.031 34.819,194.222 34.420,194.380 34.080 C 194.538 33.740,194.703 33.427,194.745 33.385 C 194.788 33.342,194.924 33.111,195.048 32.870 C 195.390 32.208,196.557 31.108,197.234 30.809 C 197.565 30.663,197.836 30.487,197.836 30.418 C 197.836 30.350,197.996 30.294,198.192 30.294 C 198.387 30.294,198.613 30.228,198.694 30.148 C 198.982 29.861,202.628 29.865,202.628 30.152 " stroke="none" fill="white" fill-rule="evenodd"></path></g></svg>