<svg width="178" height="36" viewBox="0 0 178 36" fill="white" xmlns="http://www.w3.org/2000/svg">
<path d="M83.5174 28.5797C84.5306 28.5797 85.3929 28.9381 86.0956 29.6504C86.7984 30.3627 87.1519 31.2367 87.1519 32.2636C87.1519 33.2906 86.7984 34.1733 86.0956 34.9031C85.3929 35.6329 84.5306 36 83.5174 36C82.5042 36 81.6419 35.6329 80.9391 34.9031C80.2364 34.1733 79.8828 33.295 79.8828 32.2636C79.8828 31.2323 80.2364 30.3627 80.9391 29.6504C81.6419 28.9381 82.5042 28.5797 83.5174 28.5797Z" fill="#EF7D00"/>
<path d="M16.9484 15.8325C16.5862 16.1996 16.1464 16.3788 15.6204 16.3788H10.313V26.9367C10.313 27.6009 10.5329 28.1472 10.977 28.5798C11.4211 29.0124 11.9514 29.2265 12.5722 29.2265H15.6204C16.1421 29.2265 16.5862 29.4101 16.9484 29.7728C17.3105 30.1399 17.4873 30.5856 17.4873 31.1188V33.9549C17.4873 34.488 17.3062 34.9338 16.9484 35.3008C16.5862 35.6679 16.1464 35.8471 15.6204 35.8471H12.5722C11.3607 35.8471 10.2225 35.6155 9.15754 35.1479C8.09261 34.6847 7.16134 34.0467 6.3594 33.2295C5.55747 32.4166 4.928 31.4684 4.46667 30.3933C4.00966 29.3139 3.77684 28.1603 3.77684 26.9323V16.3744H1.86686C1.34086 16.3744 0.901095 16.1909 0.538933 15.8281C0.17677 15.4611 0 15.0153 0 14.4822V12.59C0 12.0612 0.181081 11.6111 0.538933 11.244C0.901095 10.8769 1.34086 10.6978 1.86686 10.6978H3.78115V5.96945C3.78115 5.44068 3.96223 4.99057 4.32008 4.62349C4.68225 4.25641 5.12201 4.07724 5.64801 4.07724H8.44615C8.96784 4.07724 9.41192 4.26078 9.77408 4.62349C10.1362 4.99057 10.313 5.43631 10.313 5.96945V10.6978H15.6204C16.1421 10.6978 16.5862 10.8813 16.9484 11.244C17.3105 11.6111 17.4873 12.0568 17.4873 12.59V14.4822C17.4873 15.0153 17.3062 15.4611 16.9484 15.8281V15.8325Z" fill="#EF7D00"/>
<path d="M59.6924 15.8325C59.3302 16.1996 58.8905 16.3788 58.3645 16.3788H53.0571V26.9367C53.0571 27.6009 53.277 28.1472 53.721 28.5798C54.1651 29.0124 54.6954 29.2265 55.3163 29.2265H58.3602C58.8819 29.2265 59.3259 29.4101 59.6881 29.7728C60.0503 30.1399 60.227 30.5856 60.227 31.1188V33.9549C60.227 34.488 60.0459 34.9338 59.6881 35.3008C59.3302 35.6679 58.8862 35.8471 58.3602 35.8471H55.3163C54.1048 35.8471 52.9665 35.6155 51.9016 35.1479C50.8367 34.6847 49.9054 34.0467 49.1035 33.2295C48.3015 32.4166 47.6721 31.4684 47.2107 30.3933C46.7537 29.3139 46.5209 28.1603 46.5209 26.9323V16.3744H44.6066C44.0806 16.3744 43.6408 16.1909 43.2787 15.8281C42.9165 15.4611 42.7397 15.0153 42.7397 14.4822V12.59C42.7397 12.0612 42.9208 11.6111 43.2787 11.244C43.6408 10.8769 44.0806 10.6978 44.6066 10.6978H46.5209V5.96945C46.5209 5.44068 46.702 4.99057 47.0598 4.62349C47.422 4.25641 47.8618 4.07724 48.3878 4.07724H51.1859C51.7076 4.07724 52.1517 4.26078 52.5138 4.62349C52.8717 4.99057 53.0528 5.43631 53.0528 5.96945V10.6978H58.3602C58.8819 10.6978 59.3259 10.8813 59.6881 11.244C60.0503 11.6111 60.227 12.0568 60.227 12.59V14.4822C60.227 15.0153 60.0459 15.4611 59.6881 15.8281L59.6924 15.8325Z" fill="#EF7D00"/>
<path d="M65.8318 7.36344C64.8143 7.36344 63.9563 7.00511 63.2536 6.2928C62.5508 5.58049 62.1973 4.70649 62.1973 3.67954C62.1973 2.65259 62.5508 1.77859 63.2536 1.06628C63.9563 0.353975 64.8186 -0.00436401 65.8318 -0.00436401C66.845 -0.00436401 67.7073 0.353975 68.4101 1.06628C69.1128 1.77859 69.4664 2.65259 69.4664 3.67954C69.4664 4.70649 69.1128 5.58049 68.4101 6.2928C67.7073 7.00511 66.845 7.36344 65.8318 7.36344ZM67.2417 10.6977C67.7677 10.6977 68.2161 10.8813 68.5782 11.244C68.9404 11.6111 69.1215 12.0568 69.1215 12.59V33.9505C69.1215 34.4487 68.9404 34.8813 68.5782 35.244C68.2161 35.6111 67.772 35.7903 67.2417 35.7903H64.4694C63.9391 35.7903 63.495 35.6067 63.1329 35.244C62.7707 34.8769 62.5896 34.4487 62.5896 33.9505V12.5943C62.5896 12.0656 62.7707 11.6154 63.1329 11.2484C63.495 10.8813 63.9391 10.7021 64.4694 10.7021H67.2417V10.6977Z" fill="#EF7D00"/>
<path d="M76.0842 35.799H73.3119C72.7816 35.799 72.3375 35.6242 71.9754 35.2746C71.6132 34.925 71.4321 34.488 71.4321 33.9549V2.23745C71.4321 1.70868 71.6132 1.25857 71.9754 0.891495C72.3375 0.524415 72.7816 0.345245 73.3119 0.345245H76.0842C76.6102 0.345245 77.0586 0.528785 77.4208 0.891495C77.7829 1.25857 77.964 1.70431 77.964 2.23745V33.9549C77.964 34.488 77.7829 34.925 77.4208 35.2746C77.0586 35.6242 76.6145 35.799 76.0842 35.799V35.799Z" fill="#EF7D00"/>
<path d="M99.7886 35.9956C97.8571 35.9956 96.0463 35.5761 94.3605 34.7414C92.6747 33.9068 91.2476 32.7749 90.0878 31.3547C88.9238 29.9344 88.0916 28.3001 87.5829 26.4603C87.0741 24.6162 87.0181 22.6846 87.4104 20.6613C87.6389 19.3984 88.0572 18.2141 88.6651 17.0998C89.2687 15.9898 90.0059 14.9934 90.8768 14.1107C91.7435 13.2323 92.7265 12.4851 93.8259 11.8689C94.921 11.2571 96.0937 10.8332 97.3397 10.5972C99.6981 10.1646 101.949 10.3394 104.096 11.1216C106.239 11.9038 108.032 13.1711 109.476 14.9323C109.804 15.2993 109.925 15.7232 109.843 16.2039C109.761 16.6846 109.507 17.0604 109.08 17.3226L106.282 19.1143C105.92 19.3154 105.544 19.3809 105.152 19.3154C104.76 19.2498 104.432 19.0663 104.169 18.7691C103.415 18.0393 102.539 17.5149 101.539 17.2003C100.539 16.8856 99.4998 16.8594 98.4176 17.126C97.2707 17.3926 96.2619 17.9738 95.3953 18.8696C94.5287 19.7655 93.994 20.8099 93.8 22.0073C93.6017 23.0036 93.6362 23.9432 93.8992 24.8215C94.1622 25.6999 94.5718 26.4821 95.1279 27.1639C95.6841 27.8456 96.3653 28.3831 97.1673 28.7808C97.9692 29.1784 98.8444 29.3794 99.7973 29.3794C100.647 29.3794 101.453 29.2134 102.203 28.8813C102.958 28.5491 103.613 28.1034 104.169 27.5353C104.432 27.2381 104.76 27.0546 105.152 26.9891C105.544 26.9235 105.92 26.9891 106.282 27.1901L109.08 28.9818C109.507 29.2483 109.761 29.6242 109.843 30.1092C109.925 30.5943 109.817 31.0226 109.524 31.3896C108.312 32.8623 106.872 33.9985 105.2 34.8026C103.531 35.6067 101.729 36.0044 99.7973 36.0044L99.7886 35.9956Z" fill="#EF7D00"/>
<path d="M122.92 35.9956C121.182 35.9956 119.548 35.6635 118.009 34.9993C116.47 34.335 115.125 33.4217 113.982 32.2593C112.835 31.0969 111.934 29.7378 111.279 28.1777C110.624 26.6176 110.296 24.957 110.296 23.2003C110.296 21.4435 110.624 19.7829 111.279 18.2229C111.934 16.6628 112.835 15.3037 113.982 14.1413C115.129 12.9789 116.47 12.0655 118.009 11.4013C119.548 10.7371 121.187 10.4049 122.92 10.4049C124.653 10.4049 126.291 10.7371 127.831 11.4013C129.37 12.0655 130.711 12.9789 131.858 14.1413C133.004 15.3037 133.905 16.6628 134.561 18.2229C135.216 19.7829 135.544 21.4435 135.544 23.2003C135.544 24.957 135.216 26.622 134.561 28.1777C133.905 29.7378 133.004 31.1012 131.858 32.2593C130.711 33.4217 129.37 34.335 127.831 34.9993C126.291 35.6635 124.653 35.9956 122.92 35.9956ZM122.946 17.0255C122.096 17.0255 121.307 17.1828 120.574 17.4974C119.841 17.8121 119.195 18.2491 118.643 18.8128C118.087 19.3765 117.647 20.0277 117.324 20.7706C116.996 21.5135 116.836 22.3175 116.836 23.1741C116.836 24.0306 117 24.8347 117.324 25.5819C117.651 26.3248 118.091 26.9803 118.643 27.5397C119.199 28.1034 119.841 28.5491 120.574 28.8769C121.307 29.209 122.101 29.3707 122.946 29.3707C123.791 29.3707 124.584 29.2046 125.317 28.8769C126.05 28.5448 126.697 28.099 127.249 27.5397C127.805 26.9759 128.236 26.3248 128.546 25.5819C128.857 24.839 129.012 24.0349 129.012 23.1741C129.012 22.3132 128.857 21.5135 128.546 20.7706C128.236 20.0277 127.805 19.3722 127.249 18.8128C126.692 18.2491 126.05 17.8121 125.317 17.4974C124.584 17.1828 123.791 17.0255 122.946 17.0255V17.0255Z" fill="#EF7D00"/>
<path d="M164.12 10.8026C165.892 10.571 167.565 10.7196 169.138 11.2527C170.712 11.7859 172.092 12.59 173.273 13.6693C174.454 14.7487 175.399 16.0422 176.101 17.5543C176.804 19.0663 177.158 20.6832 177.158 22.4093V33.9636C177.158 34.4618 176.977 34.8944 176.614 35.2571C176.252 35.6242 175.804 35.8034 175.278 35.8034H172.506C171.98 35.8034 171.531 35.6198 171.169 35.2571C170.807 34.89 170.626 34.4618 170.626 33.9636V22.6103C170.626 21.3474 170.251 20.2287 169.501 19.2498C168.75 18.2709 167.789 17.6635 166.616 17.4319C165.832 17.2658 165.077 17.2833 164.344 17.48C163.611 17.681 162.969 18.0219 162.413 18.5026C161.856 18.9833 161.417 19.5557 161.093 20.22C160.766 20.8842 160.606 21.614 160.606 22.4093V33.9636C160.606 34.4618 160.425 34.8944 160.063 35.2571C159.701 35.6242 159.257 35.8034 158.726 35.8034H155.954C155.424 35.8034 154.98 35.6198 154.617 35.2571C154.255 34.89 154.074 34.4618 154.074 33.9636V22.6103C154.074 21.3474 153.699 20.2287 152.949 19.2498C152.199 18.2709 151.237 17.6635 150.064 17.4319C149.28 17.2658 148.525 17.2833 147.792 17.48C147.059 17.681 146.417 18.0219 145.861 18.5026C145.305 18.9833 144.865 19.5557 144.542 20.22C144.214 20.8842 144.054 21.614 144.054 22.4093V33.9636C144.054 34.4618 143.873 34.8944 143.511 35.2571C143.149 35.6242 142.705 35.8034 142.175 35.8034H139.402C138.872 35.8034 138.428 35.6198 138.066 35.2571C137.704 34.89 137.522 34.4618 137.522 33.9636V12.5943C137.522 12.0656 137.704 11.6154 138.066 11.2484C138.428 10.8813 138.872 10.7021 139.402 10.7021H142.175C142.701 10.7021 143.149 10.8857 143.511 11.2484C143.873 11.6154 144.054 12.0612 144.054 12.5943L144.007 14.0889C144.861 13.027 145.891 12.1967 147.107 11.598C148.323 10.9993 149.633 10.7021 151.043 10.7021C152.552 10.7371 153.872 11.0255 155.005 11.5717C156.135 12.118 157.114 12.874 157.933 13.8354C158.787 13.0401 159.718 12.3758 160.735 11.8427C161.753 11.3139 162.882 10.9643 164.128 10.7983L164.12 10.8026Z" fill="#EF7D00"/>
<path d="M41.761 18.2054C41.1057 16.6453 40.2046 15.2863 39.0577 14.1239C38.2385 13.2936 37.3202 12.5987 36.3027 12.0263C35.8931 11.7946 35.4706 11.5761 35.0308 11.3882C33.4916 10.724 31.8533 10.3919 30.1201 10.3919C28.3868 10.3919 26.7442 10.724 25.205 11.3882C23.6658 12.0525 22.3249 12.9658 21.1781 14.1282C20.0312 15.2906 19.1301 16.6497 18.4791 18.2098C17.8238 19.7699 17.4961 21.4305 17.4961 23.1872C17.4961 24.944 17.8238 26.6089 18.4791 28.1646C19.1344 29.7247 20.0312 31.0882 21.1781 32.2462C22.3249 33.4086 23.6658 34.322 25.205 34.9862C26.6709 35.6198 28.2273 35.9389 29.87 35.9694L38.0919 35.9826H40.8642C41.3902 35.9826 41.8386 35.799 42.2008 35.4363C42.5629 35.0692 42.744 34.641 42.744 34.1428V23.1872C42.744 21.4261 42.4163 19.7699 41.761 18.2098V18.2054ZM25.8345 27.5266C25.2826 26.9629 24.8428 26.3118 24.5152 25.5689C24.1875 24.826 24.028 24.0219 24.028 23.1654C24.028 22.3088 24.1918 21.5048 24.5152 20.7619C24.8428 20.019 25.2826 19.3635 25.8345 18.8041C26.3906 18.2404 27.033 17.8034 27.766 17.4887C28.4989 17.1741 29.2923 17.0168 30.1416 17.0168C30.991 17.0168 31.78 17.1741 32.5129 17.4887C33.2459 17.8034 33.8926 18.2404 34.4444 18.8041C35.0006 19.3678 35.4318 20.019 35.7422 20.7619C36.0526 21.5048 36.2078 22.3088 36.2078 23.1654C36.2078 24.0219 36.0526 24.826 35.7422 25.5689C35.4318 26.3118 35.0006 26.9673 34.4444 27.5266C33.8926 28.0903 33.2459 28.5361 32.5129 28.8638C31.78 29.196 30.9867 29.3576 30.1416 29.3576C29.2966 29.3576 28.5033 29.1916 27.766 28.8638C27.033 28.5317 26.3863 28.086 25.8345 27.5266Z" fill="#EF7D00"/>
<path d="M25.8345 27.5266C25.2826 26.9629 24.8428 26.3117 24.5152 25.5689C24.1875 24.826 24.028 24.0219 24.028 23.1654C24.028 22.3088 24.1918 21.5048 24.5152 20.7619C24.8428 20.019 25.2826 19.3635 25.8345 18.8041C26.3906 18.2404 27.033 17.8034 27.766 17.4887C28.4989 17.1741 29.2922 17.0168 30.1416 17.0168C30.991 17.0168 31.78 17.1741 32.5129 17.4887C33.2459 17.8034 33.8926 18.2404 34.4444 18.8041C34.9101 19.2761 35.2679 19.8267 35.5611 20.4254C37.0529 18.5419 38.2989 16.5142 39.269 14.3686C39.1957 14.2899 39.131 14.2112 39.0577 14.1326C38.2385 13.3023 37.3202 12.6075 36.3027 12.035C35.8931 11.8034 35.4706 11.5849 35.0308 11.397C33.4916 10.7327 31.8533 10.4006 30.12 10.4006C28.3868 10.4006 26.7442 10.7327 25.205 11.397C23.6658 12.0612 22.3249 12.9745 21.1781 14.1369C20.0312 15.2994 19.1301 16.6584 18.4791 18.2185C17.8238 19.7786 17.4961 21.4392 17.4961 23.1959C17.4961 24.9527 17.8238 26.6177 18.4791 28.1734C18.9706 29.3445 19.6001 30.4064 20.3675 31.3504C22.6009 30.4851 24.7135 29.445 26.6752 28.2345C26.3777 28.0248 26.0975 27.7932 25.8388 27.531L25.8345 27.5266Z" fill="#EF7D00"/>
<path d="M25.8345 27.5266C25.2826 26.9629 24.8428 26.3117 24.5152 25.5689C24.1875 24.826 24.028 24.0219 24.028 23.1654C24.028 22.3088 24.1918 21.5048 24.5152 20.7619C24.8428 20.019 25.2826 19.3635 25.8345 18.8041C26.3906 18.2404 27.033 17.8034 27.766 17.4887C28.4989 17.1741 29.2922 17.0168 30.1416 17.0168C30.991 17.0168 31.78 17.1741 32.5129 17.4887C33.2459 17.8034 33.8926 18.2404 34.4444 18.8041C34.9101 19.2761 35.2679 19.8267 35.5611 20.4254C37.0529 18.5419 38.2989 16.5142 39.269 14.3686C39.1957 14.2899 39.131 14.2112 39.0577 14.1326C38.2385 13.3023 37.3202 12.6075 36.3027 12.035C35.8931 11.8034 35.4706 11.5849 35.0308 11.397C33.4916 10.7327 31.8533 10.4006 30.12 10.4006C28.3868 10.4006 26.7442 10.7327 25.205 11.397C23.6658 12.0612 22.3249 12.9745 21.1781 14.1369C20.0312 15.2994 19.1301 16.6584 18.4791 18.2185C17.8238 19.7786 17.4961 21.4392 17.4961 23.1959C17.4961 24.9527 17.8238 26.6177 18.4791 28.1734C18.9706 29.3445 19.6001 30.4064 20.3675 31.3504C22.6009 30.4851 24.7135 29.445 26.6752 28.2345C26.3777 28.0248 26.0975 27.7932 25.8388 27.531L25.8345 27.5266Z" fill="white" fill-opacity="0.3"/>
</svg>
